# xmcd
#
# Track frame offsets:
#	150
#	13793
#	29053
#	39588
#	51934
#	61121
#	75858
#	86952
#	99030
#	111265
#	122454
#	133607
#	149000
#	158744
#	171819
#	182894
#	192792
#	204453
#	213236
#	224401
#	235516
#	248261
#	260759
#	270813
#	279393
#	290122
#	342141
#
# Disc length: 5233 seconds
#
# Revision: 0
# Processed by: cddbd v1.5.2PL0 Copyright (c) Steve Scherf et al.
# Submitted via: audiograbber 1.83.01
#
DISCID=80146f1b
DTITLE=Chuck Berry - Rock And Roll Music - Any Old Way You Choose It [CD 02) - 
DTITLE=Studio 1957-1958
DYEAR=2014
DGENRE=Rock and Roll
TTITLE0=Sweet Little Sixteen [mono 1958]
TTITLE1=Rock At The Philharmonic [instrumental] [mono 1958]
TTITLE2=Guitar Boogie [instrumental] [mono 1959]
TTITLE3=Night Beat [instrumental] [mono 1964]
TTITLE4=Time Was [slow version] [mono 1988]
TTITLE5=Reelin' And Rockin' [mono 1958]
TTITLE6=Chuckwalk [instrumental] [mono 1992]
TTITLE7=Johnny B. Goode [mono 1958]
TTITLE8=Around And Around [mono 1958]
TTITLE9=Ingo [instrumental] [mono 1958]
TTITLE10=It Don't Take But A Few Minutes [mono 1958]
TTITLE11=Blues For Hawaiians [instrumental] [mono 1959]
TTITLE12=Beautiful Delilah [mono 1958]
TTITLE13=Vacation Time [mono 1958]
TTITLE14=21 [mono 1990]
TTITLE15=21 Blues [mono 1979]
TTITLE16=Oh Yeah [mono 1979]
TTITLE17=Hey Pedro [mono 1958]
TTITLE18=Time Was [mono 1974]
TTITLE19=House Of Blue Lights [mono 1974]
TTITLE20=Carol [mono 1958]
TTITLE21=Jo Jo Gunne [mono 1958]
TTITLE22=Memphis Tennessee [mono 1959]
TTITLE23=Anthony Boy [mono 1959]
TTITLE24=Sweet Little Rock And Roller [mono 1958]
TTITLE25=Long Fast Jam [instrumental] [mono 2007]
TTITLE26=Long Slow Jam [instrumental] [mono 2007]
EXTD=
EXTT0=
EXTT1=
EXTT2=
EXTT3=
EXTT4=
EXTT5=
EXTT6=
EXTT7=
EXTT8=
EXTT9=
EXTT10=
EXTT11=
EXTT12=
EXTT13=
EXTT14=
EXTT15=
EXTT16=
EXTT17=
EXTT18=
EXTT19=
EXTT20=
EXTT21=
EXTT22=
EXTT23=
EXTT24=
EXTT25=
EXTT26=
PLAYORDER=
